<svg xmlns="http://www.w3.org/2000/svg" width="35" height="35" viewBox="0 0 35 35">
  <g id="Group_30" data-name="Group 30" transform="translate(-195.45 -194.685)">
    <g id="Group_29" data-name="Group 29" transform="translate(195.45 194.685)">
      <g id="Group_22" data-name="Group 22" transform="translate(0 0)">
        <g id="Group_12" data-name="Group 12" transform="translate(0 13.804)">
          <g id="Group_10" data-name="Group 10" transform="translate(17.436)">
            <path id="Path_3" data-name="Path 3" d="M285.264,247a4.456,4.456,0,0,1-3.5-1.682l-.162-.2.162-.2a4.474,4.474,0,0,1,6.991,0l.162.2-.162.2A4.456,4.456,0,0,1,285.264,247Zm-2.815-1.885a3.824,3.824,0,0,0,5.631,0,3.825,3.825,0,0,0-5.631,0Z" transform="translate(-271.357 -241.42)" fill="#d4c0af"/>
            <path id="Path_4" data-name="Path 4" d="M257.423,245.037a9.255,9.255,0,0,1-7.26-3.494l-.162-.2.162-.2a9.291,9.291,0,0,1,14.52,0l.162.2-.162.2A9.256,9.256,0,0,1,257.423,245.037Zm-6.587-3.7a8.641,8.641,0,0,0,13.173,0,8.642,8.642,0,0,0-13.173,0Z" transform="translate(-250.001 -237.645)" fill="#d4c0af"/>
          </g>
          <g id="Group_11" data-name="Group 11">
            <path id="Path_5" data-name="Path 5" d="M199.108,247a4.457,4.457,0,0,1-3.5-1.682l-.162-.2.162-.2a4.474,4.474,0,0,1,6.991,0l.162.2-.162.2A4.456,4.456,0,0,1,199.108,247Zm-2.815-1.885a3.824,3.824,0,0,0,5.631,0,3.825,3.825,0,0,0-5.631,0Z" transform="translate(-195.45 -241.42)" fill="#d4c0af"/>
            <path id="Path_6" data-name="Path 6" d="M211.26,245.037a9.256,9.256,0,0,1-7.26-3.494l-.162-.2.162-.2a9.291,9.291,0,0,1,14.52,0l.162.2-.162.2A9.256,9.256,0,0,1,211.26,245.037Zm-6.587-3.7a8.641,8.641,0,0,0,13.173,0,8.642,8.642,0,0,0-13.173,0Z" transform="translate(-201.118 -237.645)" fill="#d4c0af"/>
          </g>
        </g>
        <g id="Group_15" data-name="Group 15" transform="translate(13.804)">
          <g id="Group_13" data-name="Group 13" transform="translate(0 17.436)">
            <path id="Path_7" data-name="Path 7" d="M245.88,288.156l-.2-.162a4.474,4.474,0,0,1,0-6.991l.2-.162.2.162a4.473,4.473,0,0,1,0,6.991Zm0-6.473a3.825,3.825,0,0,0,0,5.631,3.824,3.824,0,0,0,0-5.631Z" transform="translate(-242.185 -270.592)" fill="#d4c0af"/>
            <path id="Path_8" data-name="Path 8" d="M242.106,264.081l-.2-.162a9.291,9.291,0,0,1,0-14.52l.2-.162.2.162a9.291,9.291,0,0,1,0,14.52Zm0-14.009a8.642,8.642,0,0,0,0,13.173,8.641,8.641,0,0,0,0-13.173Z" transform="translate(-238.41 -249.236)" fill="#d4c0af"/>
          </g>
          <g id="Group_14" data-name="Group 14">
            <path id="Path_9" data-name="Path 9" d="M245.88,202l-.2-.162a4.474,4.474,0,0,1,0-6.991l.2-.162.2.162a4.473,4.473,0,0,1,0,6.991Zm0-6.473a3.824,3.824,0,0,0,0,5.63,3.824,3.824,0,0,0,0-5.63Z" transform="translate(-242.185 -194.685)" fill="#d4c0af"/>
            <path id="Path_10" data-name="Path 10" d="M242.106,217.918l-.2-.162a9.291,9.291,0,0,1,0-14.52l.2-.162.2.162a9.291,9.291,0,0,1,0,14.52Zm0-14.009a8.642,8.642,0,0,0,0,13.174,8.642,8.642,0,0,0,0-13.174Z" transform="translate(-238.41 -200.353)" fill="#d4c0af"/>
          </g>
        </g>
        <g id="Group_18" data-name="Group 18" transform="translate(5.107 5.106)">
          <g id="Group_16" data-name="Group 16" transform="translate(12.224 12.225)">
            <path id="Path_11" data-name="Path 11" d="M276.588,276.64a4.451,4.451,0,0,1-3.159-1.31h0a4.455,4.455,0,0,1-1.282-3.661l.028-.258.258-.028a4.473,4.473,0,0,1,4.943,4.943l-.029.258-.258.029A4.575,4.575,0,0,1,276.588,276.64Zm-2.7-1.769a3.8,3.8,0,0,0,2.865,1.117,3.825,3.825,0,0,0-3.982-3.982,3.809,3.809,0,0,0,1.117,2.865Z" transform="translate(-264.841 -264.077)" fill="#d4c0af"/>
            <path id="Path_12" data-name="Path 12" d="M258.958,259.582a9.242,9.242,0,0,1-6.56-2.721h0a9.256,9.256,0,0,1-2.664-7.6l.029-.258.258-.029a9.291,9.291,0,0,1,10.268,10.268l-.029.258-.258.029A9.511,9.511,0,0,1,258.958,259.582Zm-8.6-9.992a8.606,8.606,0,0,0,2.5,6.812h0a8.6,8.6,0,0,0,6.812,2.5,8.642,8.642,0,0,0-9.315-9.315Z" transform="translate(-249.677 -248.913)" fill="#d4c0af"/>
          </g>
          <g id="Group_17" data-name="Group 17">
            <path id="Path_13" data-name="Path 13" d="M215.666,215.717a4.473,4.473,0,0,1-4.441-4.971l.029-.258.258-.029a4.473,4.473,0,0,1,4.944,4.943l-.029.258-.258.029A4.526,4.526,0,0,1,215.666,215.717Zm-3.817-4.633a3.824,3.824,0,0,0,3.981,3.981,3.824,3.824,0,0,0-3.981-3.981Z" transform="translate(-211.197 -210.43)" fill="#d4c0af"/>
            <path id="Path_14" data-name="Path 14" d="M226.316,226.94a9.244,9.244,0,0,1-6.56-2.721h0a9.257,9.257,0,0,1-2.664-7.6l.029-.258.258-.029A9.291,9.291,0,0,1,227.647,226.6l-.029.258-.258.029A9.507,9.507,0,0,1,226.316,226.94Zm-6.1-3.18a8.6,8.6,0,0,0,6.812,2.5,8.642,8.642,0,0,0-9.315-9.315,8.606,8.606,0,0,0,2.5,6.812Z" transform="translate(-215.142 -214.377)" fill="#d4c0af"/>
          </g>
        </g>
        <g id="Group_21" data-name="Group 21" transform="translate(5.107 5.107)">
          <g id="Group_19" data-name="Group 19" transform="translate(0 12.224)">
            <path id="Path_15" data-name="Path 15" d="M212.014,276.639a4.511,4.511,0,0,1-.5-.028l-.258-.028-.029-.258a4.455,4.455,0,0,1,1.282-3.661h0a4.459,4.459,0,0,1,3.661-1.283l.258.029.029.258a4.473,4.473,0,0,1-4.441,4.971Zm-.165-.652a3.825,3.825,0,0,0,3.981-3.982,3.824,3.824,0,0,0-3.981,3.982Z" transform="translate(-211.197 -264.077)" fill="#d4c0af"/>
            <path id="Path_16" data-name="Path 16" d="M218.423,259.582a9.491,9.491,0,0,1-1.044-.058l-.258-.029-.029-.258A9.292,9.292,0,0,1,227.36,248.97l.258.029.029.258a9.291,9.291,0,0,1-9.224,10.325Zm-.711-.677a8.642,8.642,0,0,0,9.315-9.315,8.642,8.642,0,0,0-9.315,9.315Z" transform="translate(-215.142 -248.913)" fill="#d4c0af"/>
          </g>
          <g id="Group_20" data-name="Group 20" transform="translate(12.224)">
            <path id="Path_17" data-name="Path 17" d="M272.935,215.718a4.516,4.516,0,0,1-.5-.028l-.258-.029-.029-.258a4.457,4.457,0,0,1,1.283-3.661h0a4.457,4.457,0,0,1,3.661-1.282l.258.029.028.258a4.474,4.474,0,0,1-4.441,4.971Zm-.165-.652a3.825,3.825,0,0,0,3.982-3.981,3.824,3.824,0,0,0-3.982,3.981Z" transform="translate(-264.841 -210.432)" fill="#d4c0af"/>
            <path id="Path_18" data-name="Path 18" d="M251.065,226.94a9.511,9.511,0,0,1-1.044-.058l-.258-.029-.029-.258A9.291,9.291,0,0,1,260,216.328l.258.029.029.258a9.291,9.291,0,0,1-9.224,10.325Zm-.711-.677a8.642,8.642,0,0,0,9.315-9.315,8.642,8.642,0,0,0-9.315,9.315Z" transform="translate(-249.677 -214.377)" fill="#d4c0af"/>
          </g>
        </g>
      </g>
      <g id="Group_25" data-name="Group 25" transform="translate(10.328 4.523)">
        <g id="Group_23" data-name="Group 23">
          <path id="Path_19" data-name="Path 19" d="M230.491,214.236a2.8,2.8,0,1,1,2.8-2.8A2.8,2.8,0,0,1,230.491,214.236Zm0-4.955a2.153,2.153,0,1,0,2.153,2.153A2.156,2.156,0,0,0,230.491,209.282Z" transform="translate(-227.689 -208.633)" fill="#d4c0af"/>
          <path id="Path_20" data-name="Path 20" d="M257.125,214.236a2.8,2.8,0,1,1,2.8-2.8A2.8,2.8,0,0,1,257.125,214.236Zm0-4.955a2.153,2.153,0,1,0,2.153,2.153A2.156,2.156,0,0,0,257.125,209.282Z" transform="translate(-245.686 -208.633)" fill="#d4c0af"/>
        </g>
        <g id="Group_24" data-name="Group 24" transform="translate(0 20.351)">
          <path id="Path_21" data-name="Path 21" d="M230.491,277.776a2.8,2.8,0,1,1,2.8-2.8A2.8,2.8,0,0,1,230.491,277.776Zm0-4.954a2.153,2.153,0,1,0,2.153,2.153A2.156,2.156,0,0,0,230.491,272.822Z" transform="translate(-227.689 -272.173)" fill="#d4c0af"/>
          <path id="Path_22" data-name="Path 22" d="M257.125,277.776a2.8,2.8,0,1,1,2.8-2.8A2.8,2.8,0,0,1,257.125,277.776Zm0-4.954a2.153,2.153,0,1,0,2.153,2.153A2.155,2.155,0,0,0,257.125,272.822Z" transform="translate(-245.686 -272.173)" fill="#d4c0af"/>
        </g>
      </g>
      <g id="Group_28" data-name="Group 28" transform="translate(4.471 10.38)">
        <g id="Group_26" data-name="Group 26">
          <path id="Path_23" data-name="Path 23" d="M212.038,259.323a2.8,2.8,0,1,1,2.8-2.8A2.8,2.8,0,0,1,212.038,259.323Zm0-4.954a2.153,2.153,0,1,0,2.153,2.153A2.156,2.156,0,0,0,212.038,254.369Z" transform="translate(-209.236 -245.083)" fill="#d4c0af"/>
          <path id="Path_24" data-name="Path 24" d="M212.038,232.689a2.8,2.8,0,1,1,2.8-2.8A2.8,2.8,0,0,1,212.038,232.689Zm0-4.955a2.153,2.153,0,1,0,2.153,2.153A2.156,2.156,0,0,0,212.038,227.735Z" transform="translate(-209.236 -227.086)" fill="#d4c0af"/>
        </g>
        <g id="Group_27" data-name="Group 27" transform="translate(20.351)">
          <path id="Path_25" data-name="Path 25" d="M275.578,259.323a2.8,2.8,0,1,1,2.8-2.8A2.8,2.8,0,0,1,275.578,259.323Zm0-4.954a2.153,2.153,0,1,0,2.153,2.153A2.155,2.155,0,0,0,275.578,254.369Z" transform="translate(-272.776 -245.083)" fill="#d4c0af"/>
          <path id="Path_26" data-name="Path 26" d="M275.578,232.689a2.8,2.8,0,1,1,2.8-2.8A2.8,2.8,0,0,1,275.578,232.689Zm0-4.955a2.153,2.153,0,1,0,2.153,2.153A2.155,2.155,0,0,0,275.578,227.735Z" transform="translate(-272.776 -227.086)" fill="#d4c0af"/>
        </g>
      </g>
    </g>
    <path id="Path_27" data-name="Path 27" d="M231.52,239.531a8.777,8.777,0,1,1,8.777-8.777A8.787,8.787,0,0,1,231.52,239.531Zm0-16.9a8.128,8.128,0,1,0,8.128,8.128A8.137,8.137,0,0,0,231.52,222.627Z" transform="translate(-18.57 -18.57)" fill="#d4c0af"/>
  </g>
</svg>
